<svg xmlns="http://www.w3.org/2000/svg" viewBox="0 0 149.46 167.19"><g id="Layer_2" data-name="Layer 2"><g id="Layer_1-2" data-name="Layer 1"><path d="M149.46,50.45v0l0,36.65-27.92,16.12,0-46.63L74.77,29.55,28,56.53l-.05,54.05,32.38,18.73L45.83,121a13.94,13.94,0,0,0-14.36,23.89L8.6,131.64A17.22,17.22,0,0,1,0,116.72L.05,50.34a17.23,17.23,0,0,1,8.63-14.9L66.19,2.3a17.21,17.21,0,0,1,17.21,0l57.46,33.24A17.22,17.22,0,0,1,149.46,50.45Z" fill="#363636"/><path d="M149.46,94.52v22.59a16.66,16.66,0,0,1-8.33,14.43l-7.92,4.57L83.26,164.89a17.22,17.22,0,0,1-16.46.39l-4.71-2.71L43.8,152l-11.92-6.89-.22-.14a1.18,1.18,0,0,1-.19-.11A13.94,13.94,0,0,1,45.83,121l14.45,8.34,14.4,8.33h0l0,0,39-22.54,4.75-2.74,3-1.72,27.91-16.12Z" fill="#00d253"/></g></g></svg>