<svg xmlns="http://www.w3.org/2000/svg" viewBox="0 0 220.11 246.22"><g id="Layer_2" data-name="Layer 2"><g id="Layer_1-2" data-name="Layer 1"><path d="M220.11,74.29v0l-.05,54L179,152,179,83.38,110.12,43.52l-69,39.74-.07,79.59,47.69,27.59L67.5,178.15a20.53,20.53,0,0,0-21.16,35.19L12.66,193.86A25.33,25.33,0,0,1,0,171.89L.08,74.13a25.36,25.36,0,0,1,12.7-21.94l84.7-48.8a25.32,25.32,0,0,1,25.35,0l84.62,49A25.35,25.35,0,0,1,220.11,74.29Z" fill="#363636"/><path d="M220.11,139.2v33.27a24.52,24.52,0,0,1-12.26,21.24l-11.66,6.74-73.57,42.39a25.36,25.36,0,0,1-24.24.57l-6.94-4L64.5,223.85,47,213.7a2.79,2.79,0,0,1-.33-.19,2.61,2.61,0,0,1-.28-.17A20.53,20.53,0,0,1,67.5,178.15l21.28,12.29L110,202.7h0l.06,0,57.48-33.19,7-4,4.4-2.54,41.11-23.74Z" fill="#00d253"/></g></g></svg>