<svg xmlns="http://www.w3.org/2000/svg" viewBox="0 0 292.78 112.53"><g id="Layer_2" data-name="Layer 2"><g id="Layer_1-2" data-name="Layer 1"><path d="M131.67,52.49V62.73c0,2.48.81,3.77,3.34,3.77a7.64,7.64,0,0,0,2.59-.43l.11,6.47a16.76,16.76,0,0,1-5.12.8c-7.17,0-9.54-3.82-9.54-9.53V52.49h-4.31V45.87H123V38.81h8.67v7.06H138v6.62Z" fill="#00d253"/><path d="M157.91,53.79a8.35,8.35,0,0,0-5.6-2.43c-1.67,0-3.34.59-3.34,2.16s1.45,1.94,4.9,2.69c4.1.92,8.57,3,8.57,8.19,0,6.79-6,9.16-11.48,9.16-4.36,0-8.89-1.45-11.69-4.15l5-5.22a9.12,9.12,0,0,0,6.57,3c1.46,0,3.18-.59,3.18-2.31s-1.67-2.21-5.33-3.08-7.82-2.74-7.82-7.81c0-6.41,6-9,11.16-9,4,0,8.13,1.3,10.77,3.78Z" fill="#00d253"/><path d="M194.12,61.71H174.67c.27,3,3.23,5.06,6.41,5.06A7,7,0,0,0,187,64l6.14,3.88c-2.53,3.66-6.73,5.71-12.18,5.71-8.08,0-14.76-5.12-14.76-14.17,0-8.78,6.36-14.39,14.49-14.39,7.92,0,13.47,5.45,13.47,14.61C194.17,60.31,194.17,61.06,194.12,61.71ZM186,56.21a4.88,4.88,0,0,0-5.28-5.12,5.85,5.85,0,0,0-6.09,5.12Z" fill="#00d253"/><path d="M228.5,72.7H217.56l-8.78-12.88h-.16V72.7h-8.89V32h8.89V56.75h.16l8.56-10.88h10.73L217.72,58Z" fill="#00d253"/><path d="M236.9,72.7h-3.66V32h3.66Z" fill="#363636"/><path d="M248.59,40.37a2.59,2.59,0,1,1,2.59-2.59A2.62,2.62,0,0,1,248.59,40.37Zm1.84,32.33h-3.67V47.48h3.67Z" fill="#363636"/><path d="M273.59,53.46a6.82,6.82,0,0,0-6.19-3.55c-2.64,0-5.34,1.13-5.34,3.93,0,2.37,1.89,3.45,6,4.31,5.93,1.24,8.73,3.45,8.73,7.38,0,5.77-4.85,7.81-9.49,7.81a11.74,11.74,0,0,1-10-4.9l2.91-2.15a8.33,8.33,0,0,0,7,3.93c3.13,0,5.93-1.13,5.93-4.42,0-2.64-2.64-3.72-7.44-4.85-3-.7-7.22-2-7.22-6.79,0-5.11,4.42-7.32,9-7.32,3.5,0,7.22,1.67,8.84,4.52Z" fill="#363636"/><path d="M287.39,73.24a5.37,5.37,0,0,1-5.5-5.23,5.45,5.45,0,0,1,5.5-5.33,5.28,5.28,0,1,1,0,10.56Z" fill="#363636"/><path d="M100.6,34v0l0,24.67L81.79,69.49l0-31.39L50.33,19.89,18.81,38.05l0,36.38L40.57,87l-9.72-5.61A9.38,9.38,0,0,0,21.18,97.5L5.79,88.6A11.59,11.59,0,0,1,0,78.56L0,33.88a11.57,11.57,0,0,1,5.8-10L44.55,1.55a11.59,11.59,0,0,1,11.59,0L94.81,23.93A11.59,11.59,0,0,1,100.6,34Z" fill="#363636"/><path d="M100.6,63.62v15.2A11.21,11.21,0,0,1,95,88.53l-5.33,3.08L56,111a11.52,11.52,0,0,1-11.08.26l-3.17-1.82-12.31-7.11-8-4.64-.15-.09-.13-.08a9.38,9.38,0,0,1,9.67-16.08L40.57,87l9.69,5.61h0l0,0L76.57,77.48l3.2-1.84,2-1.16,18.79-10.85Z" fill="#00d253"/></g></g></svg>