<svg xmlns="http://www.w3.org/2000/svg" viewBox="0 0 293.8 112.53"><g id="Layer_2" data-name="Layer 2"><g id="Layer_1-2" data-name="Layer 1"><text transform="translate(118.64 72.7)" font-size="53.88" fill="#00d253" font-family="AvenirNextLTPro-Bold, Avenir Next LT Pro" font-weight="700">tsek<tspan x="109.65" y="0" fill="#363636" font-family="AvenirNextLTPro-Regular, Avenir Next LT Pro" font-weight="400" letter-spacing="0em">lis</tspan><tspan x="160.62" y="0" fill="#363636" letter-spacing="-0.03em">.</tspan></text><path d="M100.6,34v0l0,24.67L81.79,69.49l0-31.39L50.33,19.89,18.81,38.05l0,36.38L40.57,87l-9.72-5.61A9.38,9.38,0,0,0,21.18,97.5L5.79,88.6A11.59,11.59,0,0,1,0,78.56L0,33.88a11.57,11.57,0,0,1,5.8-10L44.55,1.55a11.59,11.59,0,0,1,11.59,0L94.81,23.93A11.59,11.59,0,0,1,100.6,34Z" fill="#363636"/><path d="M100.6,63.62v15.2A11.21,11.21,0,0,1,95,88.53l-5.33,3.08L56,111a11.52,11.52,0,0,1-11.08.26l-3.17-1.82-12.31-7.11-8-4.64-.15-.09-.13-.08a9.38,9.38,0,0,1,9.67-16.08L40.57,87l9.69,5.61h0l0,0L76.57,77.48l3.2-1.84,2-1.16,18.79-10.85Z" fill="#00d253"/></g></g></svg>