<svg xmlns="http://www.w3.org/2000/svg" viewBox="0 0 180.61 271.48"><g id="Layer_2" data-name="Layer 2"><g id="Layer_1-2" data-name="Layer 1"><text transform="translate(0 257.93)" font-size="55.56" fill="#00d253" font-family="AvenirNextLTPro-Bold, Avenir Next LT Pro" font-weight="700">tsek<tspan x="113.05" y="0" fill="#363636" font-family="AvenirNextLTPro-Regular, Avenir Next LT Pro" font-weight="400" letter-spacing="0em">lis</tspan><tspan x="165.61" y="0" fill="#363636" letter-spacing="-0.03em">.</tspan></text><path d="M179.93,60.5v0l0,44-33.48,19.33.05-55.92L90.36,35.44,34.2,67.8l-.06,64.82L73,155.08l-17.33-10a16.72,16.72,0,0,0-17.23,28.65L11,157.87A20.62,20.62,0,0,1,.68,140L.75,60.37A20.64,20.64,0,0,1,11.09,42.5l69-39.74a20.63,20.63,0,0,1,20.64,0l68.91,39.87A20.65,20.65,0,0,1,179.93,60.5Z" fill="#363636"/><path d="M179.93,113.36v27.09a20,20,0,0,1-10,17.3l-9.5,5.49-59.91,34.52a20.6,20.6,0,0,1-19.74.46L75.15,195,53.21,182.3,38.92,174l-.27-.16-.23-.14a16.72,16.72,0,0,1,17.23-28.65l17.33,10,17.26,10h0l0,0,46.81-27,5.69-3.29,3.59-2.07,33.47-19.32Z" fill="#00d253"/></g></g></svg>