<svg xmlns="http://www.w3.org/2000/svg" viewBox="0 0 122.51 171.35"><g id="Layer_2" data-name="Layer 2"><g id="Layer_1-2" data-name="Layer 1"><path d="M12.54,157v7c0,1.69.55,2.57,2.28,2.57a5.28,5.28,0,0,0,1.76-.29l.08,4.41a11.26,11.26,0,0,1-3.5.55c-4.89,0-6.51-2.61-6.51-6.51V157H3.71v-4.53h2.9v-4.82h5.93v4.82h4.3V157Z" fill="#00d253"/><path d="M30.45,157.85a5.74,5.74,0,0,0-3.83-1.66c-1.14,0-2.28.41-2.28,1.48s1,1.32,3.35,1.83c2.8.63,5.85,2,5.85,5.6,0,4.63-4.08,6.25-7.84,6.25a11.8,11.8,0,0,1-8-2.83L21.1,165A6.23,6.23,0,0,0,25.59,167c1,0,2.17-.4,2.17-1.58s-1.14-1.51-3.64-2.1-5.33-1.88-5.33-5.33c0-4.38,4.12-6.15,7.61-6.15a11,11,0,0,1,7.36,2.58Z" fill="#00d253"/><path d="M55.17,163.26H41.89c.18,2,2.2,3.46,4.37,3.46a4.78,4.78,0,0,0,4.05-1.92l4.2,2.65c-1.73,2.5-4.6,3.9-8.32,3.9-5.52,0-10.08-3.49-10.08-9.67,0-6,4.34-9.83,9.9-9.83s9.19,3.72,9.19,10C55.2,162.3,55.2,162.82,55.17,163.26Zm-5.52-3.76A3.33,3.33,0,0,0,46,156a4,4,0,0,0-4.15,3.49Z" fill="#00d253"/><path d="M78.63,170.76H71.17l-6-8.79h-.11v8.79H59V143h6.07v16.92h.11L71,152.44h7.32l-7.06,8.28Z" fill="#00d253"/><path d="M83.67,170.76h-1.8V143h1.8Z" fill="#363636"/><path d="M92.35,148.69a1.77,1.77,0,1,1,1.77-1.77A1.8,1.8,0,0,1,92.35,148.69Zm1.25,22.07H91.1V153.55h2.5Z" fill="#363636"/><path d="M109.42,157.63a4.67,4.67,0,0,0-4.23-2.43c-1.8,0-3.64.77-3.64,2.69,0,1.61,1.28,2.35,4.12,2.94,4,.85,6,2.35,6,5,0,3.94-3.31,5.33-6.48,5.33a8,8,0,0,1-6.8-3.34l2-1.48a5.71,5.71,0,0,0,4.78,2.69c2.14,0,4-.77,4-3,0-1.8-1.8-2.53-5.08-3.31-2-.48-4.93-1.36-4.93-4.63,0-3.5,3-5,6.15-5a7,7,0,0,1,6,3.09Z" fill="#363636"/><path d="M118.83,171.13a3.66,3.66,0,0,1-3.75-3.57,3.72,3.72,0,0,1,3.75-3.64,3.61,3.61,0,1,1,0,7.21Z" fill="#363636"/><path d="M118.67,40.05v0l0,29.11L96.48,82l0-37L59.37,23.47,22.19,44.89l0,42.91,25.71,14.88L36.39,96.05a11,11,0,0,0-5.52-1.48A11.06,11.06,0,0,0,25,115L6.83,104.52A13.64,13.64,0,0,1,0,92.68L0,40A13.69,13.69,0,0,1,6.89,28.14L52.56,1.83a13.64,13.64,0,0,1,13.66,0l45.63,26.39A13.67,13.67,0,0,1,118.67,40.05Z" fill="#363636"/><path d="M118.67,75.05V93a13.2,13.2,0,0,1-6.61,11.45l-6.29,3.63L66.11,130.93a13.79,13.79,0,0,1-6.51,1.82A13.63,13.63,0,0,1,53,131.23l-3.74-2.15-14.52-8.39-9.47-5.47-.17-.11A.75.75,0,0,1,25,115a11.06,11.06,0,0,1,5.88-20.45,11,11,0,0,1,5.52,1.48l11.47,6.63,11.44,6.61h0l0,0,31-17.89,3.77-2.18,2.37-1.37,22.16-12.79Z" fill="#00d253"/></g></g></svg>